:SAMPLES-PER-SECOND 30
:FRAME-RANGE 1-1086
:FULLY-SPECIFIED
:DEGREES
102
root  -43.4494 39.6312 -85.1026 -175.097 37.3054 177.84
RightUpLeg  -17.5011 -10.1156 -7.35689
RightLeg  3.3071 -23.525 2.31651
RightFoot  7.11525 -0.248519 1.82979
RightToes  -5.8209e-011 0 -3.6325e-017
Spine  9.87373 0.117658 -0.240309
Spine1  3.97409 0.696185 -2.77453
HEad  7.63547 0.26216 -1.04567
LeftShoulder1  2.09229 -2.03548 -31.7425
LeftArm  3.32359 -20.7465 -35.7208
LeftForeArm  12.3207 -4.07318 -16.8295
LeftHand  0.181332 -1.9388 -2.71568
RightShoulder  13.0077 18.0325 52.7859
RightArm  4.88376 8.1924 16.8015
RightForeArm  24.3536 0.117381 16.123
RightHand  0.308161 4.51608 3.31921
LeftUpLeg  -13.6097 10.8019 0.666166
LeftLeg  12.1556 -2.53204 -2.25007
LeftFoot  -3.0536 0.298675 -3.86918
LeftToes  5.72949e-011 5.22586e-011 2.45399e-011
103
root  -42.9139 39.6213 -85.2031 -175.019 37.1597 178.496
RightUpLeg  -17.219 -9.66759 -6.54782
RightLeg  5.09685 -23.8788 1.64394
RightFoot  5.70586 -0.338398 2.51801
RightToes  -5.8209e-011 0 -3.6325e-017
Spine  10.0868 0.00772714 1.87788
Spine1  4.04496 0.822158 -3.16005
HEad  7.60976 0.322096 -1.61146
LeftShoulder1  2.10235 -2.01665 -32.0541
LeftArm  4.21762 -20.1512 -36.1472
LeftForeArm  12.1106 -4.33751 -16.8071
LeftHand  0.183779 -1.94502 -2.75167
RightShoulder  13.4401 18.7904 52.6798
RightArm  4.48809 8.89051 17.1799
RightForeArm  25.0791 -1.21163 16.2937
RightHand  0.306175 4.52299 3.29323
LeftUpLeg  -13.1355 11.1254 1.62712
LeftLeg  13.1303 -3.10443 -1.6835
LeftFoot  -3.96288 0.32794 -4.7163
LeftToes  5.72949e-011 5.22586e-011 2.45399e-011
104
root  -42.3574 39.6092 -85.2775 -174.934 37.5976 179.139
RightUpLeg  -16.8327 -9.2993 -5.65058
RightLeg  6.35455 -23.6206 1.422
RightFoot  4.46818 -0.38125 2.96493
RightToes  -5.8209e-011 0 -3.6325e-017
Spine  10.2519 0.138604 3.42136
Spine1  3.98885 1.03718 -2.99667
HEad  7.55876 0.685566 -2.11937
LeftShoulder1  2.07953 -1.93522 -32.2038
LeftArm  4.94074 -18.625 -36.6236
LeftForeArm  12.298 -4.85422 -16.6345
LeftHand  0.193868 -2.13231 -2.82269
RightShoulder  13.8211 19.5275 52.4352
RightArm  4.82409 9.54744 17.5607
RightForeArm  25.2483 -1.93261 16.4446
RightHand  0.316218 4.50295 3.41885
LeftUpLeg  -12.7675 11.7745 2.73777
LeftLeg  14.4055 -3.41925 -1.22713
LeftFoot  -4.71616 0.360861 -5.74368
LeftToes  5.72949e-011 5.22586e-011 2.45399e-011
105
root  -41.7628 39.6076 -85.3283 -175.003 37.8865 179.517
RightUpLeg  -16.4311 -8.8038 -4.75136
RightLeg  7.46662 -23.7239 1.02525
RightFoot  3.40168 -0.273544 2.29332
RightToes  -5.8209e-011 0 -3.6325e-017
Spine  10.2243 0.233831 4.27847
Spine1  4.06751 1.04556 -2.35666
HEad  7.73037 1.20312 -2.35755
LeftShoulder1  2.04645 -1.84411 -32.2357
LeftArm  6.61181 -16.6933 -36.8528
LeftForeArm  11.2402 -5.69311 -16.4613
LeftHand  0.248077 -2.28376 -3.57586
RightShoulder  14.174 20.017 52.6423
RightArm  5.83873 10.2751 17.5798
RightForeArm  25.28 -1.89747 16.5816
RightHand  0.307261 4.49554 3.31692
LeftUpLeg  -12.8183 12.1097 3.82675
LeftLeg  16.3989 -3.6336 -0.934767
LeftFoot  -4.97394 0.449171 -7.53279
LeftToes  5.72949e-011 5.22586e-011 2.45399e-011
106
root  -41.1943 39.5798 -85.3615 -175.157 37.8941 179.604
RightUpLeg  -16.2216 -8.76413 -4.16429
RightLeg  8.9287 -23.6756 0.624681
RightFoot  1.92829 -0.230999 2.09822
RightToes  -5.8209e-011 0 -3.6325e-017
Spine  10.0301 0.223727 5.07891
Spine1  4.219 0.94826 -1.7922
HEad  7.85899 1.53357 -2.40377
LeftShoulder1  2.02692 -1.79017 -32.2561
LeftArm  7.41713 -15.224 -36.8329
LeftForeArm  10.9294 -5.51512 -16.6041
LeftHand  0.262565 -2.33887 -3.7636
RightShoulder  14.3216 20.1945 52.7854
RightArm  6.30041 10.9998 17.7038
RightForeArm  25.3622 -1.50869 16.5842
RightHand  0.285171 4.47547 3.06555
LeftUpLeg  -13.5601 11.3647 4.88818
LeftLeg  19.351 -3.02585 -0.857478
LeftFoot  -4.88597 0.588651 -9.90208
LeftToes  5.72949e-011 5.22586e-011 2.45399e-011
107
root  -40.6861 39.5326 -85.3851 -175.329 37.8639 179.665
RightUpLeg  -15.9717 -9.19602 -3.80555
RightLeg  10.2403 -23.1402 0.722739
RightFoot  0.454762 -0.203478 1.99878
RightToes  -5.8209e-011 0 -3.6325e-017
Spine  10.0493 0.21377 6.25052
Spine1  4.17492 0.97952 -1.5977
HEad  7.85846 1.45043 -2.66162
LeftShoulder1  2.02306 -1.75849 -32.4126
LeftArm  6.65143 -14.3325 -36.6356
LeftForeArm  11.8503 -4.23871 -16.9835
LeftHand  0.307527 -2.44419 -4.37121
RightShoulder  14.2006 20.1138 52.5266
RightArm  6.89366 11.3609 17.887
RightForeArm  24.4407 -0.247931 16.4795
RightHand  0.287001 4.50623 3.07542
LeftUpLeg  -14.9355 10.4996 5.86718
LeftLeg  23.1961 -2.33671 -0.771751
LeftFoot  -4.19064 0.798185 -12.3364
LeftToes  5.72949e-011 5.22586e-011 2.45399e-011
108
root  -40.2086 39.476 -85.3998 -175.53 37.9146 179.799
RightUpLeg  -15.6982 -9.3838 -3.3198
RightLeg  11.4868 -22.8698 0.61476
RightFoot  -0.834771 -0.168788 1.77305
RightToes  -5.8209e-011 0 -3.6325e-017
Spine  10.0949 0.257695 7.46407
Spine1  4.20686 1.10306 -1.4881
HEad  7.68181 1.46351 -2.85483
LeftShoulder1  2.02119 -1.74953 -32.4426
LeftArm  6.10565 -13.6182 -36.5562
LeftForeArm  12.0683 -2.87651 -17.3785
LeftHand  0.313425 -2.17132 -4.64432
RightShoulder  14.0126 20.015 52.0614
RightArm  8.39077 11.373 18.1387
RightForeArm  21.9977 1.80946 16.3034
RightHand  0.298236 4.48394 3.21568
LeftUpLeg  -16.601 9.77285 6.8212
LeftLeg  27.4053 -1.47093 -0.496476
LeftFoot  -2.66402 1.12198 -14.5154
LeftToes  5.72949e-011 5.22586e-011 2.45399e-011
109
root  -39.7747 39.4202 -85.4174 -175.744 38.296 179.821
RightUpLeg  -15.626 -9.44856 -2.87911
RightLeg  12.8083 -22.4056 0.366965
RightFoot  -2.05991 -0.148631 1.65746
RightToes  -5.8209e-011 0 -3.6325e-017
Spine  10.1505 0.35631 8.42422
Spine1  4.13989 1.28342 -1.45782
HEad  7.55776 1.70615 -2.94759
LeftShoulder1  2.01193 -1.7122 -32.5398
LeftArm  5.43247 -12.6727 -36.3825
LeftForeArm  12.386 -1.64098 -17.6498
LeftHand  0.310431 -2.01389 -4.71009
RightShoulder  13.9379 20.1101 51.583
RightArm  10.5612 11.4078 18.202
RightForeArm  19.6507 3.67283 16.0971
RightHand  0.296903 4.52412 3.18441
LeftUpLeg  -18.2489 9.35161 7.39804
LeftLeg  31.1574 0.263864 0.511594
LeftFoot  -0.233797 1.55319 -15.8753
LeftToes  5.72949e-011 5.22586e-011 2.45399e-011
110
root  -39.3977 39.3534 -85.4651 -175.915 39.0186 179.883
RightUpLeg  -15.7204 -9.33499 -2.39085
RightLeg  14.26 -21.729 -0.058155
RightFoot  -3.20489 -0.1361 1.60624
RightToes  -5.8209e-011 0 -3.6325e-017
Spine  10.2455 0.449353 9.31763
Spine1  3.95394 1.46211 -1.4759
HEad  7.45407 2.33895 -3.15568
LeftShoulder1  1.98863 -1.63665 -32.6523
LeftArm  5.33242 -11.2675 -36.1256
LeftForeArm  11.9184 -1.09443 -17.7986
LeftHand  0.308916 -1.90091 -4.77019
RightShoulder  13.9183 20.2902 51.1241
RightArm  10.4309 11.6684 18.1185
RightForeArm  20.3957 4.05075 15.9123
RightHand  0.311139 4.64114 3.30407
LeftUpLeg  -19.5146 9.13963 7.51693
LeftLeg  34.0854 1.96471 1.77641
LeftFoot  1.81592 1.46542 -12.7613
LeftToes  5.72949e-011 5.22586e-011 2.45399e-011
111
root  -39.0383 39.3689 -85.5197 -176.235 39.7427 179.675
RightUpLeg  -15.4008 -9.04686 -2.0859
RightLeg  14.7191 -21.2464 -0.313083
RightFoot  -3.80593 -0.11125 1.29575
RightToes  -5.8209e-011 0 -3.6325e-017
Spine  10.3023 0.466766 9.59353
Spine1  3.76015 1.52661 -1.54951
HEad  7.33281 3.17104 -3.44605
LeftShoulder1  1.9652 -1.55285 -32.8283
LeftArm  5.55549 -9.58399 -35.7816
LeftForeArm  11.5021 -1.01805 -17.8531
LeftHand  0.320111 -1.85753 -4.98254
RightShoulder  13.8986 20.4052 50.8077
RightArm  9.94202 12.1053 17.7034
RightForeArm  21.0033 3.80383 15.94
RightHand  0.297656 4.67592 3.13522
LeftUpLeg  -20.1041 8.82598 7.10811
LeftLeg  35.3918 2.71763 2.42412
LeftFoot  0.690879 1.13642 -10.7999
LeftToes  5.72949e-011 5.22586e-011 2.45399e-011
112
root  -38.6961 39.4678 -85.5995 -176.84 40.5241 178.935
RightUpLeg  -14.6956 -8.90981 -2.23676
RightLeg  14.2213 -20.6225 -0.220674
RightFoot  -3.97161 -0.0878722 0.944764
RightToes  -5.8209e-011 0 -3.6325e-017
Spine  10.1976 0.546027 9.26434
Spine1  3.65057 1.62357 -1.77255
HEad  7.24911 3.91704 -3.71991
LeftShoulder1  1.95421 -1.50963 -32.9431
LeftArm  5.92763 -7.95399 -35.6063
LeftForeArm  11.0805 -1.02164 -17.9017
LeftHand  0.331727 -1.84691 -5.17753
RightShoulder  13.7337 20.323 50.3821
RightArm  7.63203 12.46 17.2641
RightForeArm  22.4189 2.71345 15.9912
RightHand  0.293131 4.5954 3.11325
LeftUpLeg  -19.9632 8.28634 5.86601
LeftLeg  34.4673 2.60032 2.26729
LeftFoot  -1.63561 0.773789 -8.9865
LeftToes  5.72949e-011 5.22586e-011 2.45399e-011
